<?xml version="1.0" encoding="UTF-8" standalone="no"?>
<!DOCTYPE svg PUBLIC "-//W3C//DTD SVG 1.1//EN" "http://www.w3.org/Graphics/SVG/1.1/DTD/svg11.dtd">
<!-- Generated by Microsoft Visio, SVG Export qiaozhuangyehuadian.svg Page-1 -->
<svg xmlns="http://www.w3.org/2000/svg" xmlns:xlink="http://www.w3.org/1999/xlink" xmlns:ev="http://www.w3.org/2001/xml-events"
		xmlns:v="http://schemas.microsoft.com/visio/2003/SVGExtensions/" width="2.43913in" height="2.38872in"
		viewBox="0 0 175.618 171.988" xml:space="preserve" color-interpolation-filters="sRGB" class="st6">
	<v:documentProperties v:langID="1033" v:metric="true" v:viewMarkup="false"/>

	<style type="text/css">
	<![CDATA[
		.st1 {visibility:visible}
		.st2 {fill:#5b9bd5;fill-opacity:0.22;filter:url(#filter_2);stroke:#5b9bd5;stroke-opacity:0.22}
		.st3 {fill:#ffffff;stroke:#000000;stroke-width:0.25}
		.st4 {fill:#ffff00;stroke:#000000;stroke-width:0.25}
		.st5 {fill:#c00000;stroke:#c7c8c8;stroke-width:0.25}
		.st6 {fill:none;fill-rule:evenodd;font-size:12px;overflow:visible;stroke-linecap:square;stroke-miterlimit:3}
	]]>
	</style>

	<defs id="Filters">
		<filter id="filter_2">
			<feGaussianBlur stdDeviation="2"/>
		</filter>
	</defs>
	<g v:mID="0" v:index="1" v:groupContext="foregroundPage">
		<title>Page-1</title>
		<v:pageProperties v:drawingScale="0.0393701" v:pageScale="0.0393701" v:drawingUnits="24" v:shadowOffsetX="8.50394"
				v:shadowOffsetY="-8.50394"/>
		<g id="group18-1" transform="translate(3.0294,-5.3478)" v:mID="18" v:groupContext="group">
			<title>Sheet.18</title>
			<g id="shape14-2" v:mID="14" v:groupContext="shape">
				<title>Circle</title>
				<v:userDefs>
					<v:ud v:nameU="visVersion" v:val="VT0(15):26"/>
				</v:userDefs>
				<g id="shadow14-3" v:groupContext="shadow" v:shadowOffsetX="0.345598" v:shadowOffsetY="-1.97279" v:shadowType="1"
						transform="matrix(1,0,0,1,0.345598,1.97279)" class="st1">
					<path d="M0 89.37 A84.4338 82.6189 0 0 1 168.87 89.37 A84.4338 82.6189 0 1 1 0 89.37 Z" class="st2"/>
				</g>
				<path d="M0 89.37 A84.4338 82.6189 0 0 1 168.87 89.37 A84.4338 82.6189 0 1 1 0 89.37 Z" class="st3"/>
			</g>
			<g id="shape15-7" v:mID="15" v:groupContext="shape" transform="translate(15.0124,-14.6897)">
				<title>Circle.15</title>
				<v:userDefs>
					<v:ud v:nameU="visVersion" v:val="VT0(15):26"/>
				</v:userDefs>
				<g id="shadow15-8" v:groupContext="shadow" v:shadowOffsetX="0.345598" v:shadowOffsetY="-1.97279" v:shadowType="1"
						transform="matrix(1,0,0,1,0.345598,1.97279)" class="st1">
					<path d="M0 104.06 A69.4214 67.9292 0 0 1 138.84 104.06 A69.4214 67.9292 0 1 1 -0 104.06 Z" class="st2"/>
				</g>
				<path d="M0 104.06 A69.4214 67.9292 0 0 1 138.84 104.06 A69.4214 67.9292 0 1 1 -0 104.06 Z" class="st4"/>
			</g>
			<g id="shape16-12" v:mID="16" v:groupContext="shape" transform="translate(37.0103,-36.2148)">
				<title>L Shape</title>
				<v:userDefs>
					<v:ud v:nameU="visVersion" v:prompt="" v:val="VT0(15):26"/>
				</v:userDefs>
				<g id="shadow16-13" v:groupContext="shadow" v:shadowOffsetX="0.345598" v:shadowOffsetY="-1.97279" v:shadowType="1"
						transform="matrix(1,0,0,1,0.345598,1.97279)" class="st1">
					<path d="M0 171.99 L94.85 171.99 L94.85 153.43 L18.97 153.43 L18.97 79.18 L0 79.18 L0 171.99 Z" class="st2"/>
				</g>
				<path d="M0 171.99 L94.85 171.99 L94.85 153.43 L18.97 153.43 L18.97 79.18 L0 79.18 L0 171.99 Z" class="st5"/>
			</g>
		</g>
	</g>
</svg>
